# This file uses centimeters as units for non-parametric coordinates.

mtllib Rock.mtl
g default
v -0.775959 -0.511584 0.265325
v -0.731444 -0.565629 0.273460
v -0.726842 -0.509049 0.315554
v -0.819071 -0.694101 0.000682
v -0.859695 -0.635125 0.000473
v -0.857239 -0.629724 -0.069445
v -0.817057 -0.690617 -0.068501
v -0.420019 -0.625621 0.423646
v -0.418893 -0.684273 0.385291
v -0.349092 -0.687875 0.389581
v -0.349937 -0.630037 0.428284
v -0.827242 0.091374 0.397746
v -0.874083 0.092898 0.348533
v -0.876818 0.020506 0.352325
v -0.830660 0.021091 0.398839
v -0.341605 -0.943449 -0.000565
v -0.412409 -0.931677 -0.001136
v -0.412636 -0.931373 -0.069557
v -0.341578 -0.943442 -0.069806
v 0.138901 -0.505857 0.325710
v 0.158700 -0.559693 0.285938
v 0.205461 -0.506774 0.301651
v -0.349845 0.095258 0.542287
v -0.419310 0.095952 0.538465
v -0.418600 0.024894 0.539760
v -0.349863 0.024974 0.543178
v 0.678915 -0.692742 -0.070929
v 0.772828 -0.646073 -0.064800
v 0.778586 -0.648748 -0.000053
v 0.691247 -0.693742 0.006278
v 0.242391 0.020959 0.406235
v 0.308839 0.021390 0.379988
v 0.306206 0.090615 0.377232
v 0.238074 0.091218 0.404367
v -0.691917 0.585927 0.271605
v -0.736028 0.530694 0.257546
v -0.704241 0.530016 0.315343
v -0.631186 0.726162 -0.065359
v -0.678118 0.668333 -0.063804
v -0.698841 0.663830 0.003109
v -0.647724 0.728742 0.003793
v -0.349039 0.709704 0.387489
v -0.418429 0.705808 0.382687
v -0.419369 0.647003 0.423615
v -0.348915 0.651805 0.427686
v -0.336477 0.942381 -0.070352
v -0.406631 0.929272 -0.070133
v -0.409373 0.929661 0.000530
v -0.339536 0.943449 -0.000068
v 0.161893 0.536165 0.273039
v 0.112112 0.585806 0.272048
v 0.104788 0.530101 0.313649
v 0.286114 0.716026 -0.001345
v 0.350471 0.680335 -0.006055
v 0.424144 0.654432 -0.070083
v 0.324572 0.709977 -0.069942
v -0.545407 0.542424 -0.313634
v -0.600378 0.547891 -0.267780
v -0.555427 0.603988 -0.273701
v -0.816754 0.018958 -0.394987
v -0.866770 0.017452 -0.347699
v -0.854544 0.087148 -0.348035
v -0.800193 0.089119 -0.395486
v -0.321896 0.720066 -0.381900
v -0.391878 0.688655 -0.374890
v -0.385415 0.760253 -0.334939
v -0.323004 0.777452 -0.340305
v -0.342842 0.020993 -0.543178
v -0.412777 0.020626 -0.536239
v -0.411419 0.090990 -0.535090
v -0.341561 0.091279 -0.541920
v 0.620050 0.532803 -0.241700
v 0.578410 0.524388 -0.293355
v 0.523719 0.588180 -0.251071
v 0.772428 0.096497 -0.384087
v 0.831373 0.097975 -0.344090
v 0.819482 0.030041 -0.345912
v 0.738277 0.023230 -0.388947
v -0.736778 -0.572153 -0.269184
v -0.777826 -0.514372 -0.263509
v -0.725149 -0.513671 -0.308025
v -0.347247 -0.760205 -0.344567
v -0.416005 -0.754303 -0.339894
v -0.418524 -0.690898 -0.381391
v -0.345877 -0.700181 -0.384742
v 0.263690 -0.524215 -0.295344
v 0.194068 -0.571079 -0.282590
v 0.181216 -0.513427 -0.317866
v -0.995521 0.018312 0.000509
v -0.985953 0.088545 0.000388
v -0.982267 0.088722 -0.069701
v -0.992084 0.018119 -0.069701
v 0.995521 0.016170 -0.078390
v 0.975107 0.084154 -0.075538
v 0.945440 0.086504 -0.008420
v 0.977135 0.016840 -0.012147
vt 0.385198 0.979301
vt 0.375000 0.992537
vt 0.383617 0.853221
vt 0.367651 0.008036
vt 0.222604 0.015206
vt 0.249466 0.014976
vt 0.375000 0.816885
vt 0.375000 0.754490
vt 0.490372 0.978659
vt 0.473203 0.973563
vt 0.477179 0.871698
vt 0.493241 0.008494
vt 0.372453 0.127220
vt 0.472116 0.127951
vt 0.372488 0.142288
vt 0.353064 0.142597
vt 0.249479 0.126329
vt 0.476995 0.852667
vt 0.625000 0.987191
vt 0.618114 0.982448
vt 0.617307 0.871952
vt 0.625000 0.872827
vt 0.490875 0.127839
vt 0.624740 0.127121
vt 0.491192 0.142769
vt 0.616868 0.843280
vt 0.625000 0.766991
vt 0.775159 0.013195
vt 0.638235 0.127259
vt 0.756375 0.127156
vt 0.641426 0.139989
vt 0.372769 0.235268
vt 0.466584 0.235071
vt 0.362489 0.247568
vt 0.374227 0.255428
vt 0.371780 0.342199
vt 0.386213 0.364819
vt 0.375000 0.406442
vt 0.386444 0.385968
vt 0.375000 0.493296
vt 0.224807 0.237038
vt 0.249796 0.141497
vt 0.489066 0.235302
vt 0.625883 0.237748
vt 0.634593 0.244081
vt 0.487921 0.252413
vt 0.466215 0.373455
vt 0.487516 0.372804
vt 0.484667 0.395520
vt 0.625000 0.264269
vt 0.617715 0.363410
vt 0.777370 0.235841
vt 0.756441 0.235627
vt 0.756341 0.140220
vt 0.625000 0.400716
vt 0.386759 0.484420
vt 0.463728 0.474133
vt 0.375000 0.500000
vt 0.386914 0.506376
vt 0.375000 0.605148
vt 0.383342 0.606319
vt 0.375000 0.623075
vt 0.382648 0.622273
vt 0.375000 0.750000
vt 0.146050 0.126414
vt 0.225734 0.126289
vt 0.225777 0.141138
vt 0.481737 0.475683
vt 0.616777 0.472725
vt 0.619616 0.488119
vt 0.480132 0.494514
vt 0.469846 0.608114
vt 0.485533 0.608710
vt 0.489037 0.624171
vt 0.621138 0.507480
vt 0.619865 0.604648
vt 0.853314 0.129259
vt 0.853448 0.143879
vt 0.777820 0.142071
vt 0.776793 0.128788
vt 0.625000 0.622418
vt 0.625000 0.751208
vt 0.383776 0.743834
vt 0.470541 0.754513
vt 0.472735 0.773214
vt 0.489812 0.755997
vt 0.619122 0.753831
vt 0.617814 0.769957
vt 0.372875 0.014757
vt 0.467219 0.015125
vt 0.487875 0.014972
vt 0.624469 0.013364
vt 0.624723 0.142377
vt 0.471418 0.142876
vt 0.467826 0.255259
vt 0.617336 0.262957
vt 0.616942 0.389106
vt 0.465917 0.394942
vt 0.459289 0.497342
vt 0.615429 0.510728
vt 0.618722 0.621736
vt 0.471728 0.623819
vt 0.383954 0.761809
vt 0.383429 0.832577
vt 0.489834 0.772454
vt 0.492647 0.853550
vt 0.493484 0.875216
vt 0.384580 0.852955
vt 0.637657 0.013130
vt 0.750998 0.013025
vt 0.856982 0.011952
vt 0.841611 0.234971
vt 0.148192 0.014529
vt 0.353796 0.127079
vt 0.348858 0.235379
vt 0.250545 0.236289
vt 0.145945 0.141306
vt 0.147129 0.237421
vt 0.351165 0.014503
vt 0.375000 0.841355
vt 0.459922 0.008547
vt 0.473657 0.008624
vt 0.632647 0.007139
vt 0.625000 0.841168
vt 0.622993 0.854245
vt 0.375000 0.375000
vt 0.495172 0.241724
vt 0.481758 0.241498
vt 0.646367 0.235967
vt 0.625000 0.363542
vt 0.625000 0.375000
vt 0.375000 0.613880
vt 0.488806 0.487217
vt 0.477591 0.484562
vt 0.625000 0.477222
vt 0.624619 0.602238
vt 0.625000 0.612610
vn -0.886812 -0.236083 0.397277
vn -0.396120 -0.216196 0.892383
vn -0.402455 -0.169380 0.899634
vn -0.896985 -0.180571 0.403500
vn -0.479187 -0.710434 0.515425
vn -0.926995 -0.253197 0.276715
vn -0.481104 -0.729886 0.485598
vn -0.392077 -0.746329 0.537838
vn -0.306865 -0.224678 0.924853
vn -0.556488 -0.830121 -0.034928
vn -0.522419 -0.736720 -0.429327
vn -0.428444 -0.797848 -0.424117
vn -0.465777 -0.884498 -0.026727
vn -0.907770 -0.241737 -0.342808
vn -0.947068 -0.175087 0.269087
vn -0.924464 -0.162505 -0.344903
vn -0.845072 -0.220601 -0.487020
vn -0.494723 -0.653359 -0.573037
vn 0.201584 -0.219285 0.954609
vn 0.196680 -0.155640 0.968036
vn -0.298637 -0.160493 0.940775
vn 0.200229 -0.743888 0.637605
vn -0.377906 -0.778482 0.501151
vn 0.193779 -0.764872 0.614346
vn 0.233597 -0.728725 0.643733
vn 0.246871 -0.210158 0.945985
vn -0.429473 0.213743 0.877420
vn -0.308731 0.195098 0.930925
vn -0.896245 0.347772 0.275319
vn -0.423675 0.264241 0.866416
vn -0.883347 0.404508 0.236794
vn -0.918503 0.369560 0.140637
vn 0.213734 -0.976566 -0.025225
vn 0.213618 -0.976592 -0.025218
vn 0.252029 -0.967243 -0.030371
vn 0.258240 -0.965554 -0.031917
vn 0.197479 -0.721260 -0.663917
vn -0.415578 -0.706071 -0.573376
vn 0.202634 -0.698760 -0.686057
vn 0.444467 -0.202142 0.872690
vn 0.463753 -0.139711 0.874880
vn 0.245997 -0.157194 0.956439
vn 0.253014 -0.677593 0.690545
vn 0.459817 -0.182343 0.869091
vn 0.213558 0.199076 0.956432
vn 0.276398 0.209413 0.937950
vn 0.223720 0.268785 0.936859
vn -0.323033 0.269793 0.907117
vn 0.486760 -0.370210 -0.791207
vn 0.236139 -0.633453 -0.736869
vn 0.231456 -0.680367 -0.695363
vn 0.423243 -0.400940 -0.812473
vn 0.950055 -0.299713 0.086997
vn 0.950055 -0.299713 0.086997
vn 0.950055 -0.299713 0.086997
vn 0.950055 -0.299713 0.086997
vn 0.512380 0.392392 0.763869
vn 0.471916 -0.138824 0.870645
vn 0.567810 0.430793 0.701434
vn 0.509696 0.441769 0.738275
vn 0.278539 0.263175 0.923664
vn -0.586456 0.703301 0.401791
vn -0.457789 0.757809 0.464924
vn -0.596365 0.745053 0.298739
vn -0.887900 0.448644 0.101749
vn -0.654980 0.625561 -0.423881
vn -0.482962 0.804281 0.346237
vn -0.564211 0.699311 -0.438897
vn -0.793379 0.467778 -0.389529
vn -0.636847 0.550119 -0.540180
vn -0.739026 0.456644 -0.495294
vn -0.828151 0.418612 -0.372733
vn 0.263967 0.780327 0.566931
vn 0.329006 0.761891 0.557923
vn 0.277751 0.846646 0.453922
vn 0.247865 0.904112 -0.348059
vn 0.349263 0.832011 0.431013
vn 0.287993 0.885493 -0.364640
vn 0.218117 0.828919 -0.515090
vn -0.546910 0.631925 -0.549146
vn 0.530391 0.478862 0.699554
vn 0.692880 0.702150 0.164020
vn 0.776391 0.623871 0.089458
vn 0.776379 0.613906 -0.142668
vn 0.290036 0.799853 -0.525465
vn -0.433584 0.324460 -0.840673
vn -0.351827 0.308768 -0.883674
vn -0.442249 0.291119 -0.848331
vn -0.765821 0.419057 -0.487760
vn -0.381606 -0.179137 -0.906800
vn -0.341779 0.257501 -0.903814
vn -0.285544 -0.177857 -0.941718
vn -0.852604 -0.163088 -0.496456
vn -0.370080 -0.223020 -0.901833
vn 0.130610 0.299343 -0.945164
vn 0.164472 0.277365 -0.946582
vn 0.119689 0.220402 -0.968038
vn 0.136692 -0.210695 -0.967948
vn 0.147162 0.217044 -0.965005
vn 0.191395 -0.221508 -0.956191
vn 0.145233 -0.270899 -0.951589
vn -0.289810 -0.246397 -0.924824
vn 0.585006 0.428941 -0.688316
vn 0.585006 0.428941 -0.688316
vn 0.858243 0.071296 -0.508268
vn 0.858243 0.071296 -0.508268
vn 0.858243 0.071296 -0.508268
vn 0.858243 0.071296 -0.508268
vn 0.488111 -0.363408 -0.793525
vn 0.171617 -0.264243 -0.949064
vn 0.500260 -0.361628 -0.786743
vn 0.792740 0.607098 -0.054731
vn 0.449763 -0.889527 -0.080348
vn 0.449763 -0.889527 -0.080348
vn -0.188761 0.981860 -0.017926
vn -0.188761 0.981859 -0.017926
vn -0.188761 0.981860 -0.017926
vn -0.188761 0.981859 -0.017926
vn 0.511149 -0.126445 -0.850140
vn 0.892701 0.322915 0.314343
vn 0.892701 0.322915 0.314343
s 1
g Rock
usemtl initialShadingGroup
f 1/119/1 3/89/2 15/13/3 14/114/4
f 2/1/5 1/2/1 5/3/6 4/108/7
f 3/89/2 2/4/5 9/121/8 8/90/9
f 4/108/10 7/104/11 18/18/12 17/11/13
f 6/5/14 5/6/6 89/17/15 92/66/16
f 7/104/11 6/7/14 80/8/17 79/103/18
f 8/90/9 11/91/19 26/23/20 25/14/21
f 10/9/22 9/10/8 17/11/23 16/107/24
f 11/91/19 10/12/22 21/123/25 20/92/26
f 12/15/27 15/13/3 25/14/21 24/94/28
f 13/16/29 12/15/27 37/32/30 36/115/31
f 14/114/4 13/16/29 90/42/32 89/17/15
f 16/107/33 19/106/34 27/26/35 30/21/36
f 19/106/37 18/18/12 83/85/38 82/105/39
f 20/92/26 22/109/40 32/29/41 31/24/42
f 22/19/40 21/20/25 30/21/43 29/22/44
f 23/25/45 26/23/20 31/24/42 34/93/46
f 24/94/28 23/25/45 45/43/47 44/33/48
f 28/124/49 27/26/50 87/88/51 86/27/52
s off
f 29/110/53 28/28/54 93/80/55 96/30/56
s 1
f 33/31/57 32/29/41 96/30/58 95/54/59
f 34/93/46 33/31/57 50/129/60 52/44/61
f 35/35/62 37/32/30 44/33/48 43/95/63
f 36/34/31 35/35/62 41/37/64 40/36/65
f 38/39/66 41/37/64 48/47/67 47/98/68
f 39/38/69 38/39/66 59/56/70 58/40/71
f 40/116/65 39/41/69 91/67/72 90/42/32
f 42/127/73 45/43/47 52/44/61 51/45/74
f 43/95/63 42/46/73 49/48/75 48/47/67
f 46/49/76 49/48/75 53/51/77 56/97/78
f 47/98/68 46/49/76 67/68/79 66/57/80
f 51/96/74 50/50/60 54/130/81 53/51/77
f 55/52/82 54/53/81 95/54/59 94/79/83
f 56/97/78 55/55/82 72/135/84 74/69/85
f 57/59/86 59/56/70 66/57/80 65/99/87
f 58/58/71 57/59/86 63/61/88 62/60/89
f 60/63/90 63/61/88 70/72/91 69/102/92
f 61/62/93 60/63/90 81/83/94 80/64/17
f 62/117/89 61/65/93 92/66/16 91/67/72
f 64/133/95 67/68/79 74/69/85 73/70/96
f 65/99/87 64/71/95 71/73/97 70/72/91
f 68/74/98 71/73/97 75/76/99 78/101/100
f 69/102/92 68/74/98 85/86/101 84/84/102
f 73/100/96 72/75/84 76/136/103 75/76/104
s off
f 77/77/105 76/78/106 94/79/107 93/80/108
s 1
f 78/101/100 77/81/109 86/82/52 88/87/110
f 79/103/18 81/83/94 84/84/102 83/85/38
f 82/105/39 85/86/101 88/87/110 87/88/51
f 3/89/2 8/90/9 25/14/21 15/13/3
f 11/91/19 20/92/26 31/24/42 26/23/20
f 23/25/45 34/93/46 52/44/61 45/43/47
f 12/15/27 24/94/28 44/33/48 37/32/30
f 35/35/62 43/95/63 48/47/67 41/37/64
f 42/46/73 51/96/74 53/51/77 49/48/75
f 46/49/76 56/97/78 74/69/85 67/68/79
f 38/39/66 47/98/68 66/57/80 59/56/70
f 57/59/86 65/99/87 70/72/91 63/61/88
f 64/71/95 73/100/96 75/76/99 71/73/97
f 68/74/98 78/101/100 88/87/110 85/86/101
f 60/63/90 69/102/92 84/84/102 81/83/94
f 79/103/18 83/85/38 18/18/12 7/104/11
f 82/105/39 87/88/51 27/26/50 19/106/37
f 16/107/24 30/21/43 21/20/25 10/9/22
f 4/108/7 17/11/23 9/10/8 2/1/5
f 22/109/40 29/110/44 96/30/58 32/29/41
f 28/28/49 86/111/52 77/77/109 93/80/111
f 94/79/83 76/78/112 72/112/84 55/52/82
f 33/31/57 95/54/59 54/53/81 50/129/60
f 80/113/17 6/5/14 92/66/16 61/65/93
f 5/6/6 1/119/1 14/114/4 89/17/15
f 90/42/32 13/16/29 36/115/31 40/116/65
f 62/117/89 91/67/72 39/41/69 58/118/71
f 1/119/1 2/4/5 3/89/2
f 4/108/10 5/120/6 6/7/14 7/104/11
f 8/90/9 9/121/8 10/122/22 11/91/19
f 12/15/27 13/16/29 14/114/4 15/13/3
f 16/107/33 17/11/13 18/18/12 19/106/34
f 20/92/26 21/123/25 22/109/40
f 23/25/45 24/94/28 25/14/21 26/23/20
f 27/26/35 28/124/113 29/125/114 30/21/36
f 31/24/42 32/29/41 33/31/57 34/93/46
f 35/35/62 36/115/31 37/32/30
f 38/39/66 39/126/69 40/36/65 41/37/64
f 42/127/73 43/128/63 44/33/48 45/43/47
s off
f 46/49/115 47/98/116 48/47/117 49/48/118
s 1
f 50/129/60 51/45/74 52/44/61
f 53/51/77 54/130/81 55/131/82 56/97/78
f 57/59/86 58/40/71 59/56/70
f 60/63/90 61/132/93 62/60/89 63/61/88
f 64/133/95 65/134/87 66/57/80 67/68/79
f 68/74/98 69/102/92 70/72/91 71/73/97
f 72/135/84 73/70/96 74/69/85
f 75/76/99 76/136/119 77/137/109 78/101/100
f 79/103/18 80/64/17 81/83/94
f 82/105/39 83/85/38 84/84/102 85/86/101
f 86/82/52 87/88/51 88/87/110
f 89/17/15 90/42/32 91/67/72 92/66/16
f 93/80/120 94/79/83 95/54/59 96/30/121
